# xmcd
#
# Track frame offsets:
# 183
# 14785
# 32120
# 59118
# 82020
# 95325
# 109375
# 130338
# 144508
#
# Disc length: 2149 seconds
#
#
# Revision: 0
# Processed by: cddbd v1.5.2PL0 Copyright (c) Steve Scherf et al.
# Submitted via: Nero 7, 11, 10, 0 
#
DISCID=86086309
DTITLE=Don McMinn - Heartache Hotel
DYEAR=1990
DGENRE=Blues
TTITLE0=Downtown Music
TTITLE1=Nerves Be Steel
TTITLE2=Four Flat Blues
TTITLE3=Many Rivers To Cross
TTITLE4=Whole Lotta Woman
TTITLE5=Walking City Concrete
TTITLE6=Heartache Hotel
TTITLE7=Big Wolf
TTITLE8=I Saw You Walking By The River
EXTD=
EXTT0=Downtown Music
EXTT1=Nerves Be Steel
EXTT2=Four Flat Blues
EXTT3=Many Rivers To Cross
EXTT4=Whole Lotta Woman
EXTT5=Walking City Concrete
EXTT6=Heartache Hotel
EXTT7=Big Wolf
EXTT8=I Saw You Walking By The River
PLAYORDER=
